<svg xmlns="http://www.w3.org/2000/svg" width="231" height="24" fill="none" viewBox="0 0 306 24"><path fill="#fff" d="M47.438.397a.32.32 0 0 1 .322.321v13.61c0 6.454-4.038 9.63-9.365 9.63-5.328 0-9.365-3.178-9.365-9.63V.719a.32.32 0 0 1 .322-.321h3.162a.32.32 0 0 1 .321.321v13.378c0 4.5 2.35 6.288 5.56 6.288 3.21 0 5.56-1.787 5.56-6.288V.718a.32.32 0 0 1 .321-.321h3.162ZM102.883 11.979c-.034 6.817-5.228 11.978-12.012 11.978-6.784 0-12.012-5.161-12.012-11.978S84.087 0 90.871 0c6.784 0 11.978 5.162 12.012 11.979Zm-20.252 0c0 4.83 3.54 8.405 8.24 8.405s8.207-3.574 8.207-8.405c0-4.831-3.54-8.405-8.207-8.405-4.667 0-8.24 3.574-8.24 8.405ZM136.608 23.56h-3.275a.322.322 0 0 1-.3-.436L141.701.736a.483.483 0 0 1 .45-.308h4.098c.199 0 .377.122.45.308l8.668 22.387a.321.321 0 0 1-.3.436h-3.275a.319.319 0 0 1-.3-.207l-6.99-18.432a.322.322 0 0 0-.601 0l-6.991 18.432a.323.323 0 0 1-.3.207h-.002ZM4.258 23.56H.983a.322.322 0 0 1-.3-.436L9.351.736A.482.482 0 0 1 9.8.429h4.098c.199 0 .377.122.45.308l8.668 22.387a.321.321 0 0 1-.3.436h-3.275a.319.319 0 0 1-.3-.207l-6.99-18.432a.322.322 0 0 0-.602 0L4.56 23.353a.322.322 0 0 1-.3.207h-.002ZM127.402 23.041l-6.501-8.304c3.668-.694 5.816-3.173 5.816-6.972 0-4.363-2.843-7.336-7.865-7.336h-9.068a.482.482 0 0 0-.482.482 3.087 3.087 0 0 0 3.086 3.086h6.067c3.04 0 4.494 1.553 4.494 3.801s-1.422 3.834-4.494 3.834h-8.671a.482.482 0 0 0-.482.482V23.24a.32.32 0 0 0 .321.322h3.092a.32.32 0 0 0 .321-.322v-8.304h3.569l5.645 7.367a3.21 3.21 0 0 0 2.55 1.259h2.348a.322.322 0 0 0 .254-.52ZM73.649 23.041l-6.502-8.304c3.669-.694 5.817-3.173 5.817-6.972 0-4.363-2.843-7.336-7.865-7.336H56.03a.483.483 0 0 0-.481.482 3.087 3.087 0 0 0 3.086 3.086h6.067c3.04 0 4.494 1.553 4.494 3.801s-1.422 3.834-4.494 3.834h-8.671a.483.483 0 0 0-.482.482V23.24a.32.32 0 0 0 .32.322h3.093a.32.32 0 0 0 .321-.322v-8.304h3.569l5.644 7.367a3.212 3.212 0 0 0 2.55 1.259h2.35a.321.321 0 0 0 .253-.52Z"/><path fill="#5DEB5A" d="M164.513 23.076h3.1V1.098h-3.1v21.979ZM175.805 23.076V14.46c0-2.264 1.178-4.092 3.472-4.092 2.604 0 3.472 1.673 3.472 3.75v8.96h2.914V13.62c0-3.316-1.767-5.89-5.332-5.89-1.736 0-3.503.714-4.588 2.574v-2.14h-2.852v14.912h2.914ZM193.212 23.076V14.46c0-2.264 1.178-4.092 3.472-4.092 2.604 0 3.472 1.673 3.472 3.75v8.96h2.914V13.62c0-3.316-1.767-5.89-5.332-5.89-1.736 0-3.503.714-4.588 2.574v-2.14h-2.852v14.912h2.914ZM214.092 7.7c-4.464 0-7.626 3.38-7.626 7.905 0 4.558 3.162 7.936 7.626 7.936s7.626-3.378 7.626-7.936c0-4.526-3.162-7.904-7.626-7.904Zm0 13.237c-2.48 0-4.65-1.86-4.65-5.332 0-3.44 2.17-5.3 4.65-5.3 2.48 0 4.65 1.86 4.65 5.3 0 3.473-2.17 5.332-4.65 5.332ZM231.812 23.076l5.952-14.91h-3.131l-4.278 11.5-4.247-11.5h-3.286l6.045 14.91h2.945ZM239.471 19.078c0 2.355 1.953 4.463 4.991 4.463 2.666 0 4.154-1.425 4.805-2.48 0 1.085.093 1.643.155 2.015h2.852c-.062-.372-.186-1.146-.186-2.448v-7.472c0-2.914-1.736-5.455-6.2-5.455-3.224 0-5.797 1.984-6.107 4.836l2.79.65c.186-1.736 1.333-3.006 3.379-3.006 2.263 0 3.224 1.209 3.224 2.666 0 .527-.248.992-1.147 1.116l-4.03.589c-2.573.372-4.526 1.86-4.526 4.526Zm5.394 2.015c-1.488 0-2.418-1.055-2.418-2.17 0-1.333.93-2.046 2.17-2.232l4.557-.682v.681c0 3.255-1.922 4.402-4.309 4.402ZM260.533 8.166V3.454h-2.666v2.418c0 1.302-.682 2.294-2.294 2.294h-.806V10.8h2.852v8.184c0 2.697 1.612 4.247 4.154 4.247.992 0 1.736-.186 1.984-.279v-2.48a5.898 5.898 0 0 1-1.147.124c-1.519 0-2.077-.681-2.077-2.046V10.8h3.224V8.166h-3.224ZM266.996 2.524c0 1.147.93 2.077 2.077 2.077 1.178 0 2.108-.93 2.108-2.077a2.09 2.09 0 0 0-2.108-2.108c-1.147 0-2.077.93-2.077 2.108Zm.651 20.552h2.883V8.166h-2.883v14.91ZM281.874 7.7c-4.464 0-7.626 3.38-7.626 7.905 0 4.558 3.162 7.936 7.626 7.936s7.626-3.378 7.626-7.936c0-4.526-3.162-7.904-7.626-7.904Zm0 13.237c-2.48 0-4.65-1.86-4.65-5.332 0-3.44 2.17-5.3 4.65-5.3 2.48 0 4.65 1.86 4.65 5.3 0 3.473-2.17 5.332-4.65 5.332ZM296.142 23.076V14.46c0-2.264 1.178-4.092 3.472-4.092 2.604 0 3.472 1.673 3.472 3.75v8.96H306V13.62c0-3.316-1.767-5.89-5.332-5.89-1.736 0-3.503.714-4.588 2.574v-2.14h-2.852v14.912h2.914Z"/></svg>